<svg xmlns="http://www.w3.org/2000/svg"
     xmlns:xlink="http://www.w3.org/1999/xlink"
     width="36"
     height="29"
     viewBox="0 0 1718.34 2050"
     preserveAspectRatio="xMidYMid meet">
<title>Algerie Poste</title>
<path fill="#FECC0B" d="M1300,1132.5c-201.3,131.2-375.4,211.4-522.7,251.9l-0.4-111.6l-213.1,64.79l-0.4,79.8
    C106.3,1423.1,44.5,933,356.7,608.3c-209.1,484.1,503.5,405,809.9,450.1C1247.4,1070.3,1300,1090.8,1300,1132.5z"/>
<polygon fill="#22297C" points="1502.5,1446 1502.5,1505 1369.79,1545.38 1369.88,1486.35 "/>
<polygon fill="#22297C" points="807.5,1636.89 807.5,1701.5 776.9,1710.8 671.9,1742.79 671.9,1678.2 776.9,1646.2 "/>
<polygon fill="#22297C" points="650,1691.26 650,1755.86 563.8,1782.16 514.4,1797.16 514.4,1732.56 563.8,1717.56 "/>
<path fill="#22297C" d="M1562.5,1174.3v119.45c0,22.5-20,50.84-65.47,67.22l-134.53,40.93l-50,15.21v179.78
    c-1.25,35-28.75,52.5-51.23,61.31l-153.16,46.62l-68.71,20.9c0,0-151.47,46.21-152.82,46.5c-30.95,6.76-43.03-8.46-44.67-22.82
    v-122.98l197.5-60v72.14c0,21.67,68.11,16.46,68.71-13.54v-312.4l201.09-61.19v79.2c12.47,23.55,60.39,16.89,60.8-15.21v-82.5
    l132.5-40.3L1562.5,1174.3z"/>
<path fill="#22297C" d="M1315,1113.3c300-230,490-666.7-1286.7-830C1581.7-416.7,2121.7,553.3,1315,1113.3z"/>
<path fill="#22297C" d="M1039.4,1333.5v137.4c0,14.4-13.51,34.4-38.8,41.1l-158.7,48.3l-34.4,10.5l-30.6,9.3l-105,31.9
    l-21.9,6.7l-86.2,26.2l-49.4,15.1l-6.9,2.1L366.4,1705c-32.3,5.3-63.9-5.9-68.9-30v-115.7l210-63.9v89.6c3.5,14.2,53.1,10.4,55-12.5
    l0.9-155.1l0.4-79.8l213.1-64.79l0.4,111.6l0.5,112.5c1,18.69,52.8,7.2,52.6-15.3l-0.4-84.41l11.9-3.59L1039.4,1333.5z"/>
</svg>
